<svg height="480pt" viewBox="-72 0 480 480.00003" width="480pt" xmlns="http://www.w3.org/2000/svg" xmlns:xlink="http://www.w3.org/1999/xlink"><linearGradient id="a"><stop offset="0" stop-color="#4761ac"/><stop offset="1" stop-color="#54c2ef"/></linearGradient><linearGradient id="b" gradientUnits="userSpaceOnUse" x1="-79.999985" x2="423.744015" xlink:href="#a" y1="335.992" y2="335.992"/><linearGradient id="c" gradientUnits="userSpaceOnUse" x1="-79.999985" x2="423.744015" xlink:href="#a" y1="407.992" y2="407.992"/><linearGradient id="d" gradientUnits="userSpaceOnUse" x1="-79.999985" x2="423.744015" xlink:href="#a" y1="311.992" y2="311.992"/><linearGradient id="e" gradientUnits="userSpaceOnUse" x1="-79.999985" x2="423.744015" xlink:href="#a" y1="224" y2="224"/><linearGradient id="f" gradientUnits="userSpaceOnUse" x1="-79.999985" x2="423.744015" xlink:href="#a" y1="240" y2="240"/><linearGradient id="g" gradientUnits="userSpaceOnUse" x1="-79.999985" x2="423.744015" xlink:href="#a" y1="312" y2="312"/><linearGradient id="h" gradientUnits="userSpaceOnUse" x1="-79.999985" x2="423.744015" xlink:href="#a" y1="72" y2="72"/><linearGradient id="i" gradientUnits="userSpaceOnUse" x1="-79.999985" x2="423.744015" xlink:href="#a" y1="152" y2="152"/><path d="m94.710938 352h.59375c4.402343-.324219 7.710937-4.15625 7.390624-8.558594l-1.167968-16c-.320313-4.410156-4.15625-7.71875-8.5625-7.398437-4.40625.324219-7.71875 4.15625-7.398438 8.566406l1.167969 16c.320313 4.167969 3.796875 7.390625 7.976563 7.390625zm0 0" fill="url(#b)"/><path d="m144 432h-34.824219l-4.136719-56.585938c-.320312-4.40625-4.15625-7.714843-8.5625-7.394531-4.40625.324219-7.71875 4.15625-7.398437 8.566407l4.683594 64c.304687 4.1875 3.796875 7.425781 8 7.414062h42.238281c4.417969 0 8-3.582031 8-8s-3.582031-8-8-8zm0 0" fill="url(#c)"/><path d="m292.800781 296c-2.125-.1875-4.234375.492188-5.847656 1.886719-1.613281 1.390625-2.59375 3.378906-2.722656 5.503906l-1.175781 16c-.167969 2.125.519531 4.230469 1.910156 5.84375 1.390625 1.617187 3.367187 2.613281 5.492187 2.765625h.589844c4.199219.011719 7.695313-3.226562 8-7.414062l1.175781-16c.160156-2.125-.53125-4.226563-1.925781-5.839844-1.394531-1.609375-3.371094-2.597656-5.496094-2.746094zm0 0" fill="url(#d)"/><path d="m200 168c-4.417969 0-8 3.582031-8 8s3.582031 8 8 8h32.71875c15.5625 0 30.421875 6.476562 41.015625 17.875 10.597656 11.398438 15.96875 26.691406 14.832031 42.214844l-2 27.324218c-.160156 2.121094.53125 4.21875 1.917969 5.832032 1.390625 1.609375 3.363281 2.601562 5.484375 2.753906h.589844c4.203125.011719 7.695312-3.226562 8-7.414062l2-27.328126c1.460937-19.960937-5.449219-39.632812-19.082032-54.289062-13.628906-14.65625-32.742187-22.976562-52.757812-22.96875zm0 0" fill="url(#e)"/><path d="m152 80c-4.417969 0-8 3.582031-8 8v48.382812c-27.566406 1.875-53.246094 14.667969-71.351562 35.542969-18.105469 20.871094-27.136719 48.101563-25.097657 75.660157l16.449219 225c.304688 4.1875 3.800781 7.425781 8 7.414062h240c4.199219.011719 7.695312-3.226562 8-7.414062l16.464844-224.992188c2.042968-27.5625-6.992188-54.796875-25.101563-75.671875-18.105469-20.875-43.792969-33.667969-71.363281-35.539063v-48.382812c0-4.417969-3.582031-8-8-8h-16v-32h48c4.417969 0 8-3.582031 8-8v-32c0-4.417969-3.582031-8-8-8h-152c-3.199219 0-6.089844 1.90625-7.351562 4.847656l-24 56c-1.058594 2.472656-.808594 5.308594.671874 7.554688 1.480469 2.246094 3.992188 3.597656 6.679688 3.597656h40c3.199219 0 6.089844-1.90625 7.351562-4.847656l8.207032-19.152344h24.441406v32zm168.488281 166.398438-15.929687 217.601562h-225.117188l-15.929687-217.601562c-1.777344-24.386719 6.671875-48.410157 23.320312-66.320313 16.648438-17.90625 39.996094-28.078125 64.449219-28.078125h81.4375c24.453125 0 47.800781 10.171875 64.449219 28.078125 16.648437 17.910156 25.097656 41.933594 23.320312 66.320313zm-96.488281-110.398438h-64v-40h64zm-85.710938-104c-3.199218 0-6.09375 1.90625-7.351562 4.847656l-8.210938 19.152344h-22.589843l17.136719-40h138.726562v16zm45.710938 16h16v32h-16zm0 0" fill="url(#f)"/><path d="m192 232c-44.183594 0-80 35.816406-80 80s35.816406 80 80 80 80-35.816406 80-80c-.046875-44.164062-35.835938-79.953125-80-80zm0 144c-35.347656 0-64-28.652344-64-64s28.652344-64 64-64 64 28.652344 64 64c-.039062 35.328125-28.671875 63.960938-64 64zm0 0" fill="url(#g)"/><path d="m192 264c-4.417969 0-8 3.582031-8 8s3.582031 8 8 8c17.671875 0 32 14.328125 32 32s-14.328125 32-32 32c-4.417969 0-8 3.582031-8 8s3.582031 8 8 8c26.507812 0 48-21.492188 48-48s-21.492188-48-48-48zm0 0" fill="url(#g)"/><path d="m40 48c-13.253906 0-24 10.746094-24 24s10.746094 24 24 24 24-10.746094 24-24-10.746094-24-24-24zm0 32c-4.417969 0-8-3.582031-8-8s3.582031-8 8-8 8 3.582031 8 8-3.582031 8-8 8zm0 0" fill="url(#h)"/><path d="m0 152c0 13.253906 10.746094 24 24 24s24-10.746094 24-24-10.746094-24-24-24-24 10.746094-24 24zm24-8c4.417969 0 8 3.582031 8 8s-3.582031 8-8 8-8-3.582031-8-8 3.582031-8 8-8zm0 0" fill="url(#i)"/><path d="m272 72c0 13.253906 10.746094 24 24 24s24-10.746094 24-24-10.746094-24-24-24-24 10.746094-24 24zm24-8c4.417969 0 8 3.582031 8 8s-3.582031 8-8 8-8-3.582031-8-8 3.582031-8 8-8zm0 0" fill="url(#h)"/></svg>